{
    "asset" : {
        "generator" : "Khronos glTF Blender I/O v1.6.16",
        "version" : "2.0"
    },
    "scene" : 0,
    "scenes" : [
        {
            "name" : "Scene",
            "nodes" : [
                0,
                1,
                2
            ]
        }
    ],
    "nodes" : [
        {
            "name" : "Light",
            "rotation" : [
                0.16907575726509094,
                0.7558803558349609,
                -0.27217137813568115,
                0.570947527885437
            ],
            "translation" : [
                4.076245307922363,
                5.903861999511719,
                -1.0054539442062378
            ]
        },
        {
            "name" : "Camera",
            "rotation" : [
                0.483536034822464,
                0.33687159419059753,
                -0.20870360732078552,
                0.7804827094078064
            ],
            "translation" : [
                7.358891487121582,
                4.958309173583984,
                6.925790786743164
            ]
        },
        {
            "mesh" : 0,
            "name" : "hasami",
            "scale" : [
                0.0010188935557380319,
                0.0010188935557380319,
                0.0010188935557380319
            ]
        }
    ],
    "materials" : [
        {
            "doubleSided" : true,
            "name" : "AssyMaterial0",
            "pbrMetallicRoughness" : {
                "baseColorFactor" : [
                    0.5069829821586609,
                    0.5315639972686768,
                    0.550000011920929,
                    1
                ],
                "metallicFactor" : 0,
                "roughnessFactor" : 0.850928783416748
            }
        },
        {
            "doubleSided" : true,
            "name" : "AssyMaterial1",
            "pbrMetallicRoughness" : {
                "baseColorFactor" : [
                    0,
                    0,
                    0,
                    1
                ],
                "metallicFactor" : 0,
                "roughnessFactor" : 0.850928783416748
            }
        },
        {
            "doubleSided" : true,
            "name" : "AssyMaterial2",
            "pbrMetallicRoughness" : {
                "baseColorFactor" : [
                    0.45545899868011475,
                    0.21091699600219727,
                    0.699999988079071,
                    1
                ],
                "metallicFactor" : 0,
                "roughnessFactor" : 0.850928783416748
            }
        }
    ],
    "meshes" : [
        {
            "name" : "hasami",
            "primitives" : [
                {
                    "attributes" : {
                        "POSITION" : 0,
                        "NORMAL" : 1
                    },
                    "indices" : 2,
                    "material" : 0
                },
                {
                    "attributes" : {
                        "POSITION" : 3,
                        "NORMAL" : 4
                    },
                    "indices" : 5,
                    "material" : 1
                },
                {
                    "attributes" : {
                        "POSITION" : 6,
                        "NORMAL" : 7
                    },
                    "indices" : 8,
                    "material" : 2
                }
            ]
        }
    ],
    "accessors" : [
        {
            "bufferView" : 0,
            "componentType" : 5126,
            "count" : 3254,
            "max" : [
                86.41666412353516,
                4.5,
                40
            ],
            "min" : [
                -112.39247131347656,
                -4.5,
                -40
            ],
            "type" : "VEC3"
        },
        {
            "bufferView" : 1,
            "componentType" : 5126,
            "count" : 3254,
            "type" : "VEC3"
        },
        {
            "bufferView" : 2,
            "componentType" : 5123,
            "count" : 3468,
            "type" : "SCALAR"
        },
        {
            "bufferView" : 3,
            "componentType" : 5126,
            "count" : 2262,
            "max" : [
                86.41666412353516,
                4.5,
                40
            ],
            "min" : [
                -1.9166669845581055,
                -4.5,
                -40
            ],
            "type" : "VEC3"
        },
        {
            "bufferView" : 4,
            "componentType" : 5126,
            "count" : 2262,
            "type" : "VEC3"
        },
        {
            "bufferView" : 5,
            "componentType" : 5123,
            "count" : 4224,
            "type" : "SCALAR"
        },
        {
            "bufferView" : 6,
            "componentType" : 5126,
            "count" : 1390,
            "max" : [
                84.5,
                2.5,
                38
            ],
            "min" : [
                0,
                -2.5,
                -38
            ],
            "type" : "VEC3"
        },
        {
            "bufferView" : 7,
            "componentType" : 5126,
            "count" : 1390,
            "type" : "VEC3"
        },
        {
            "bufferView" : 8,
            "componentType" : 5123,
            "count" : 2136,
            "type" : "SCALAR"
        }
    ],
    "bufferViews" : [
        {
            "buffer" : 0,
            "byteLength" : 39048,
            "byteOffset" : 0
        },
        {
            "buffer" : 0,
            "byteLength" : 39048,
            "byteOffset" : 39048
        },
        {
            "buffer" : 0,
            "byteLength" : 6936,
            "byteOffset" : 78096
        },
        {
            "buffer" : 0,
            "byteLength" : 27144,
            "byteOffset" : 85032
        },
        {
            "buffer" : 0,
            "byteLength" : 27144,
            "byteOffset" : 112176
        },
        {
            "buffer" : 0,
            "byteLength" : 8448,
            "byteOffset" : 139320
        },
        {
            "buffer" : 0,
            "byteLength" : 16680,
            "byteOffset" : 147768
        },
        {
            "buffer" : 0,
            "byteLength" : 16680,
            "byteOffset" : 164448
        },
        {
            "buffer" : 0,
            "byteLength" : 4272,
            "byteOffset" : 181128
        }
    ],
    "buffers" : [
        {
            "byteLength" : 185400,
            "uri" : "data:application/octet-stream;base64,"
        }
    ]
}
